<?xml version="1.0" encoding="UTF-8" standalone="no"?>
<!-- Created with Inkscape (http://www.inkscape.org/) -->

<svg
   width="1024"
   height="1024"
   viewBox="0 0 270.93333 270.93333"
   version="1.1"
   id="svg1"
   inkscape:version="1.3.2 (091e20e, 2023-11-25, custom)"
   sodipodi:docname="favicon.svg"
   xmlns:inkscape="http://www.inkscape.org/namespaces/inkscape"
   xmlns:sodipodi="http://sodipodi.sourceforge.net/DTD/sodipodi-0.dtd"
   xmlns:xlink="http://www.w3.org/1999/xlink"
   xmlns="http://www.w3.org/2000/svg"
   xmlns:svg="http://www.w3.org/2000/svg"
   xmlns:rdf="http://www.w3.org/1999/02/22-rdf-syntax-ns#"
   xmlns:cc="http://creativecommons.org/ns#"
   xmlns:dc="http://purl.org/dc/elements/1.1/">
  <title
     id="title104">Red soup</title>
  <sodipodi:namedview
     id="namedview1"
     pagecolor="#ffffff"
     bordercolor="#000000"
     borderopacity="0.25"
     inkscape:showpageshadow="2"
     inkscape:pageopacity="0.0"
     inkscape:pagecheckerboard="0"
     inkscape:deskcolor="#d1d1d1"
     inkscape:document-units="mm"
     inkscape:zoom="0.72426347"
     inkscape:cx="570.92483"
     inkscape:cy="417.66569"
     inkscape:window-width="1920"
     inkscape:window-height="1009"
     inkscape:window-x="-8"
     inkscape:window-y="-8"
     inkscape:window-maximized="1"
     inkscape:current-layer="layer1" />
  <defs
     id="defs1">
    <linearGradient
       id="linearGradient91"
       inkscape:collect="always">
      <stop
         style="stop-color:#9b1e1e;stop-opacity:1;"
         offset="0"
         id="stop91" />
      <stop
         style="stop-color:#d52525;stop-opacity:1;"
         offset="1"
         id="stop92" />
    </linearGradient>
    <linearGradient
       id="linearGradient1"
       inkscape:collect="always">
      <stop
         style="stop-color:#d40000;stop-opacity:1;"
         offset="0"
         id="stop1" />
      <stop
         style="stop-color:#bc4444;stop-opacity:1;"
         offset="1"
         id="stop2" />
    </linearGradient>
    <linearGradient
       inkscape:collect="always"
       xlink:href="#linearGradient1"
       id="linearGradient2"
       x1="37.543622"
       y1="123.29335"
       x2="231.32723"
       y2="123.29335"
       gradientUnits="userSpaceOnUse"
       gradientTransform="translate(6.5756458,1.8265683)" />
    <filter
       inkscape:label="Diffuse Light"
       inkscape:menu="Blurs"
       inkscape:menu-tooltip="Overlays two copies with different blur amounts and modifiable blend and composite"
       style="color-interpolation-filters:sRGB;"
       id="filter7"
       x="-0.21170105"
       y="-0.96641196"
       width="1.4234021"
       height="2.9328239">
      <feGaussianBlur
         stdDeviation="5"
         result="fbSourceGraphic"
         id="feGaussianBlur6" />
      <feGaussianBlur
         stdDeviation="0.01"
         in="SourceGraphic"
         result="result1"
         id="feGaussianBlur7" />
      <feComposite
         in2="result1"
         operator="arithmetic"
         in="fbSourceGraphic"
         k2="0.5"
         k3="0.5"
         result="result2"
         id="feComposite7" />
      <feBlend
         in2="fbSourceGraphic"
         mode="normal"
         result="fbSourceGraphic"
         id="feBlend7" />
      <feColorMatrix
         result="fbSourceGraphicAlpha"
         in="fbSourceGraphic"
         values="0 0 0 -1 0 0 0 0 -1 0 0 0 0 -1 0 0 0 0 1 0"
         id="feColorMatrix71" />
      <feGaussianBlur
         id="feGaussianBlur71"
         in="fbSourceGraphic"
         stdDeviation="10"
         result="blur" />
      <feDiffuseLighting
         id="feDiffuseLighting71"
         diffuseConstant="1"
         surfaceScale="10"
         lighting-color="rgb(255,255,255)"
         result="diffuse">
        <feDistantLight
           id="feDistantLight71"
           elevation="21"
           azimuth="20" />
      </feDiffuseLighting>
      <feComposite
         id="feComposite71"
         in="diffuse"
         in2="diffuse"
         operator="arithmetic"
         k1="1"
         result="composite1" />
      <feComposite
         id="feComposite72"
         in="composite1"
         in2="fbSourceGraphic"
         k1="1"
         operator="arithmetic"
         k3="1"
         result="composite2" />
    </filter>
    <radialGradient
       inkscape:collect="always"
       xlink:href="#linearGradient91"
       id="radialGradient92"
       cx="142.30018"
       cy="145.9444"
       fx="142.30018"
       fy="145.9444"
       r="93.26688"
       gradientTransform="matrix(1,0,0,0.16154697,0,122.36752)"
       gradientUnits="userSpaceOnUse" />
    <filter
       inkscape:collect="always"
       style="color-interpolation-filters:sRGB"
       id="filter101"
       x="-0.12928961"
       y="-0.028465447"
       width="1.2585449"
       height="1.056286">
      <feGaussianBlur
         inkscape:collect="always"
         stdDeviation="0.43374406"
         id="feGaussianBlur101" />
    </filter>
    <filter
       inkscape:collect="always"
       style="color-interpolation-filters:sRGB"
       id="filter102"
       x="-0.17586434"
       y="-0.030015828"
       width="1.3178215"
       height="1.0537396">
      <feGaussianBlur
         inkscape:collect="always"
         stdDeviation="0.43374406"
         id="feGaussianBlur102" />
    </filter>
    <filter
       inkscape:collect="always"
       style="color-interpolation-filters:sRGB"
       id="filter103"
       x="-0.11558363"
       y="-0.030664409"
       width="1.218103"
       height="1.0625057">
      <feGaussianBlur
         inkscape:collect="always"
         stdDeviation="0.43374406"
         id="feGaussianBlur103" />
    </filter>
    <filter
       inkscape:collect="always"
       style="color-interpolation-filters:sRGB"
       id="filter104"
       x="-0.10473919"
       y="-0.027585453"
       width="1.2091715"
       height="1.0555934">
      <feGaussianBlur
         inkscape:collect="always"
         stdDeviation="0.43374406"
         id="feGaussianBlur104" />
    </filter>
  </defs>
  <g
     inkscape:label="Kiht 1"
     inkscape:groupmode="layer"
     id="layer1">
    <path
       style="fill:url(#radialGradient92);fill-opacity:1;stroke:#a23e3e;stroke-width:0.898001;stroke-opacity:1"
       d="m 89.319188,158.54613 c -0.865003,0 -1.419017,-0.65567 -2.191882,-0.91329 -0.173283,-0.0578 -0.374687,0.0578 -0.54797,0 -0.05776,-0.0192 0.04305,-0.13956 0,-0.18266 -0.177511,-0.17765 -0.521751,-0.0434 -0.730627,-0.18265 -0.214932,-0.14329 -0.32892,-0.41107 -0.547971,-0.54797 -0.56555,-0.35347 -1.277066,-0.50116 -1.826568,-0.91329 -0.137769,-0.10332 -0.211284,-0.28831 -0.365314,-0.36531 -0.108915,-0.0545 -0.249791,0.0385 -0.365314,0 -0.394822,-0.13161 -0.81919,-0.41671 -1.278597,-0.54797 -0.509439,-0.14555 -1.161164,-0.2044 -1.643912,-0.36531 -0.238705,-0.0796 -0.445425,-0.27972 -0.730627,-0.36532 -1.540475,-0.46214 -1.561243,-0.39864 -3.105166,-0.91328 -0.532532,-0.17751 -1.11138,-0.18781 -1.643912,-0.36532 -1.533733,-0.51127 0.179746,-0.34734 -1.826568,-0.54797 -2.081567,-0.20815 -4.143229,-0.38611 -6.210332,-0.73062 -1.136048,-0.18935 -2.364237,-0.20759 -3.47048,-0.54797 -2.477621,-0.76235 -4.773476,-2.02902 -7.306273,-2.5572 -0.6733,0 -1.475932,-3.17855 -1.643911,-4.01845 -0.66584,-3.3292 -1.820088,-6.45229 -2.922509,-9.68081 -0.289055,-0.84652 -0.932502,-2.54756 -1.278599,-3.47048 l 185.396674,1.09594 -0.91328,10.95941 c -0.54797,0.66974 -0.99504,1.43669 -1.64391,2.00922 -0.7146,0.63054 -1.69745,0.86742 -2.5572,1.2786 -1.21757,0.58232 -3.1065,1.56002 -4.56642,2.00923 -1.0163,0.3127 -2.08505,0.43059 -3.10516,0.73062 -1.21254,0.35663 -2.40559,0.8333 -3.65314,1.09595 -0.72482,0.15259 -1.47087,0.19566 -2.19188,0.36531 -0.31916,0.0751 -0.59696,0.27901 -0.91328,0.36531 -1.12296,0.30626 -2.33557,0.30478 -3.47048,0.54797 -0.86683,0.18575 -1.70193,0.49737 -2.5572,0.73063 -1.37255,0.37433 -3.09578,1.03349 -4.56642,1.2786 -0.12011,0.02 -0.24354,0 -0.36531,0 -0.12178,0.0609 -0.23324,0.14965 -0.36532,0.18265 -0.16455,0.0411 -0.79562,-0.11765 -0.91328,0 -0.0431,0.0431 0,0.12176 0,0.18266 -2.29717,1.35603 -4.65691,2.64802 -6.94096,4.01845 -0.26105,0.15663 -0.45834,0.41183 -0.73063,0.54797 -0.22453,0.11227 -0.49557,0.0945 -0.73063,0.18266 -0.73467,0.2755 -1.44859,0.66552 -2.19188,0.91328 -0.16439,0.0548 -0.38358,-0.0548 -0.54797,0 -0.52621,0.17541 -0.42648,0.30457 -0.91328,0.54797 -0.10892,0.0545 -0.2564,-0.0545 -0.36532,0 -0.48708,0.24355 0.54797,0.18266 -0.18265,0.18266"
       id="path91" />
    <ellipse
       style="fill:#d40000;stroke:#000000;stroke-width:0.949833;stroke-opacity:1"
       id="path5"
       cx="129.32103"
       cy="207.13286"
       rx="46.73423"
       ry="6.9150434" />
    <path
       style="fill:#d40000;stroke:#000000;stroke-width:0.898001;stroke-opacity:1"
       id="path4"
       d="m 233.87244,125.16703 c 0.0583,1.87068 0.0523,3.74219 0.0358,5.61343 0.0842,1.51571 -0.0919,2.9927 -0.42266,4.46717 -0.49145,1.97015 -1.2225,3.87059 -2.02769,5.73109 -1.01111,2.51731 -2.20495,4.95485 -3.54301,7.31323 -1.18704,2.37262 -2.56437,4.63237 -3.97477,6.8761 -1.41601,2.09925 -2.93479,4.12742 -4.5531,6.0748 -2.18692,2.58447 -4.58224,4.97692 -7.01518,7.32688 -2.70338,2.52512 -5.49964,4.94926 -8.29339,7.3738 -3.30107,2.94852 -6.50192,6.0072 -9.67479,9.0926 -3.2819,3.10002 -6.64664,6.11007 -9.84303,9.2998 -2.31159,2.24692 -4.59503,4.51894 -6.81352,6.85771 -2.22384,2.31088 -4.39967,4.66839 -6.65643,6.9473 0,0 3.2438,1.98128 3.2438,1.98128 v 0 c 2.20933,-2.31985 4.35149,-4.70309 6.60259,-6.98337 2.23632,-2.31567 4.52788,-4.57544 6.79255,-6.86325 3.14603,-3.2198 6.45528,-6.27069 9.72933,-9.35869 3.21476,-3.04937 6.45999,-6.06707 9.77448,-9.00809 2.80908,-2.41272 5.58109,-4.87202 8.28203,-7.40527 2.44582,-2.36459 4.91868,-4.71783 7.1338,-7.3039 1.61776,-1.96885 3.16305,-3.99882 4.58083,-6.11715 1.39704,-2.25737 2.77422,-4.5266 3.97989,-6.894 1.31484,-2.38161 2.50416,-4.83644 3.59072,-7.32997 0.81954,-1.87434 1.53315,-3.80425 2.10998,-5.76658 0.35681,-1.50101 0.53609,-3.01323 0.4357,-4.55967 -0.0163,-1.85908 -0.0233,-3.71846 0.0358,-5.57696 z" />
    <path
       style="fill:#d40000;stroke:#000000;stroke-width:0.898001;stroke-opacity:1"
       id="path3"
       d="m 44.660275,126.88727 c 0.757539,3.02139 1.91302,5.91883 3.126089,8.78061 1.284203,3.0112 2.6654,5.97969 4.166397,8.88882 1.382678,2.65921 2.392865,5.48556 3.598029,8.2243 1.88164,4.03951 3.637439,8.1343 5.487297,12.18873 2.884537,5.64035 6.024559,11.14592 9.142835,16.6592 2.156241,3.86999 4.31767,7.73683 6.489047,11.59828 0.967729,1.61954 1.834435,3.29235 2.682023,4.9761 0.591828,1.10282 1.059071,2.26321 1.580282,3.39919 0.413655,0.94479 0.913847,1.84745 1.390872,2.76096 0,0 3.594494,1.60533 3.594494,1.60533 v 0 c -0.532966,-0.88199 -0.98121,-1.8251 -1.435668,-2.74955 -0.543034,-1.13272 -0.96978,-2.31743 -1.58477,-3.41596 -0.886894,-1.70468 -1.762707,-3.41494 -2.788804,-5.04402 -2.267497,-3.87767 -4.516117,-7.76642 -6.701498,-11.69121 -3.123129,-5.48152 -6.294202,-10.94262 -9.090711,-16.60109 -1.833263,-4.01984 -3.52957,-8.09555 -5.34907,-12.1208 -1.215398,-2.73478 -2.203326,-5.56967 -3.570542,-8.23707 -1.510747,-2.91294 -2.969794,-5.85383 -4.229004,-8.88612 -1.185889,-2.78628 -2.39435,-5.60416 -2.950784,-8.59694 z" />
    <ellipse
       style="fill:url(#linearGradient2);stroke:#000000;stroke-width:0.898001;stroke-opacity:1"
       id="path1"
       cx="141.01108"
       cy="125.11992"
       rx="96.442802"
       ry="23.562731" />
    <circle
       id="path2"
       style="fill:#d40000;stroke:#f9f9f9;stroke-width:0.264583"
       cx="45.664207"
       cy="128.59041"
       r="0.16515085" />
    <ellipse
       style="fill:#9b1e1e;fill-opacity:1;stroke:#a23e3e;stroke-width:2.02708;stroke-opacity:1;filter:url(#filter7)"
       id="path6"
       cx="138.45387"
       cy="124.93726"
       rx="87.476044"
       ry="19.162397" />
    <path
       style="fill:#9b1e1e;fill-opacity:1;stroke:#a23e3e;stroke-width:4.68616;stroke-opacity:1"
       d="m 650.31583,769.59846 c -3.03757,-1.11404 -13.60002,-3.5102 -23.47212,-5.32479 -83.07213,-15.26944 -240.90411,-12.38742 -301.05117,5.4972 -2.37649,0.70665 -3.29393,-0.31261 -5.8651,-6.51601 -1.67637,-4.04454 -15.80844,-29.71242 -31.40462,-57.03976 -38.10515,-66.76715 -40.46595,-71.47132 -70.32117,-140.12276 -7.19505,-16.54485 -7.12093,-16.25695 -3.2877,-12.7716 2.35656,2.1427 5.1434,3.10661 8.98173,3.10661 3.81156,0 6.35248,0.8701 8.06411,2.76142 1.74159,1.92444 4.25255,2.76143 8.28428,2.76143 4.03172,0 6.54268,0.83698 8.28427,2.76143 1.98633,2.19487 4.25255,2.76142 11.04571,2.76142 6.79315,0 9.05937,0.56656 11.0457,2.76143 1.94448,2.14862 4.25255,2.76142 10.40073,2.76142 4.46755,0 10.22519,1.02958 13.24795,2.36899 2.94046,1.30295 10.93818,2.79938 17.77271,3.32541 6.83453,0.52604 15.53302,1.69148 19.32998,2.58988 3.79697,0.8984 12.49546,2.16863 19.32999,2.82273 6.83453,0.65411 16.77566,1.89116 22.09141,2.74902 8.87005,1.43144 29.94823,2.8317 73.17779,4.86131 9.1127,0.42783 17.15881,1.36202 17.88023,2.07598 0.77704,0.76899 25.00467,1.29809 59.43969,1.29809 34.43503,0 58.66266,-0.5291 59.4397,-1.29809 0.72142,-0.71396 8.76753,-1.64815 17.88023,-2.07598 43.22956,-2.02961 64.30773,-3.42987 73.17779,-4.86131 5.31575,-0.85786 15.25688,-2.09491 22.09141,-2.74902 6.83453,-0.6541 15.53302,-1.92433 19.32998,-2.82273 3.79697,-0.8984 12.49546,-2.06384 19.32999,-2.58988 6.83453,-0.52603 14.83225,-2.02246 17.7727,-3.32541 3.02277,-1.33941 8.78041,-2.36899 13.24797,-2.36899 6.14816,0 8.45623,-0.6128 10.40072,-2.76142 1.98633,-2.19487 4.25255,-2.76143 11.0457,-2.76143 6.79315,0 9.05937,-0.56655 11.04571,-2.76142 1.74159,-1.92445 4.25255,-2.76143 8.28427,-2.76143 4.03173,0 6.54269,-0.83699 8.28428,-2.76143 1.74159,-1.92444 4.25256,-2.76142 8.28428,-2.76142 4.03172,0 6.54269,-0.83699 8.28428,-2.76143 1.37448,-1.51878 3.85977,-2.76143 5.52285,-2.76143 1.66308,0 4.14837,-1.24264 5.52285,-2.76142 1.37449,-1.51879 3.85977,-2.76143 5.52285,-2.76143 1.66309,0 4.14837,-1.24264 5.52286,-2.76142 1.37448,-1.51879 3.85977,-2.76143 5.52285,-2.76143 1.66308,0 4.14836,-1.24264 5.52285,-2.76143 2.74908,-3.0377 6.21321,-3.67914 6.21321,-1.15046 0,2.3756 -17.29017,34.83517 -24.51532,46.02364 -15.09981,23.38276 -31.07788,40.72703 -67.68721,73.47485 -29.79216,26.64972 -81.11898,75.49993 -103.75762,98.75112 -9.43679,9.69214 -17.51396,17.57829 -17.94927,17.52478 -0.4353,-0.0535 -3.27674,-1.00879 -6.31431,-2.12283 z"
       id="path72"
       transform="scale(0.26458333)" />
    <path
       style="mix-blend-mode:normal;fill:#e6e6e6;fill-opacity:1;stroke:#000000;stroke-width:0.898001;stroke-opacity:1;filter:url(#filter101)"
       id="path95"
       d="m 87.759206,92.44742 c 1.593316,-2.42625 2.935476,-5.007618 4.026974,-7.697978 0.380051,-0.936757 0.702951,-1.895697 1.054429,-2.843549 0.988687,-2.839473 1.725165,-5.708496 1.645332,-8.738004 -0.08162,-3.097115 -0.914704,-6.035321 -1.724234,-8.998077 C 91.922753,61.163891 90.6194,58.322658 89.589155,55.38369 88.825416,53.204987 88.730116,52.782407 88.07052,50.557108 87.497308,48.472496 87.032801,46.359195 86.673203,44.227555 86.564933,43.58575 86.335385,42.270096 86.378219,41.55225 c 0.01659,-0.278085 0.121819,-0.543677 0.182732,-0.815515 0.146465,-0.177424 0.257672,-0.391176 0.439393,-0.532273 0.683697,-0.530846 1.589635,-0.473614 2.353313,-1.010782 0.7547,-0.530852 1.021495,-1.000165 1.579777,-1.728174 0.852254,-1.507797 0.47735,-0.706559 1.105828,-2.412455 0,0 -3.312295,-1.839221 -3.312295,-1.839221 v 0 c -0.611555,1.624573 -0.249017,0.861456 -1.06999,2.297639 -0.555186,0.690967 -0.771211,1.083989 -1.519275,1.560232 -1.02611,0.653253 -2.393299,0.583022 -2.979692,1.839766 -0.06378,0.31069 -0.177774,0.615191 -0.191344,0.932069 -0.03081,0.719463 0.251383,2.127195 0.371668,2.763481 0.407204,2.154004 0.901038,4.290761 1.47584,6.406306 0.684985,2.359138 1.38267,4.703423 2.253456,7.002478 0.710756,1.876549 0.952784,2.263944 1.651305,4.173262 0.297796,0.813983 0.562972,1.639533 0.84446,2.4593 0.835075,2.930382 1.677572,5.82541 1.774031,8.898199 0.09391,2.991405 -0.602491,5.838933 -1.584537,8.643305 -0.357526,0.9349 -0.680299,1.883844 -1.072581,2.804702 -1.123228,2.636724 -2.562595,5.145762 -4.30512,7.421089 z" />
    <path
       style="mix-blend-mode:normal;fill:#e6e6e6;fill-opacity:1;stroke:#000000;stroke-width:0.898001;stroke-opacity:1;filter:url(#filter102)"
       id="path96"
       d="m 115.80635,91.853713 c -1.61652,-1.057809 1.67025,1.119791 2.31259,1.020411 0.57994,-0.08972 -0.5324,-1.048388 -0.74202,-1.596517 -0.95844,-2.506305 -1.3851,-5.13566 -1.83581,-7.765605 -0.87868,-5.798871 -0.72783,-11.678037 -0.2087,-17.499666 0.26183,-3.734462 1.35343,-7.314917 2.25427,-10.924069 0.30487,-1.749639 1.03264,-3.906091 0.86458,-5.695902 -0.0313,-0.332881 -0.12534,-0.656839 -0.188,-0.985261 -0.51302,-1.745057 -1.66093,-3.181993 -2.48475,-4.776531 -0.24013,-0.464775 -0.45359,-0.942848 -0.68039,-1.414272 -1.02826,-2.29449 -1.61837,-4.732726 -2.02489,-7.202821 0,0 -3.41557,-1.66947 -3.41557,-1.66947 v 0 c 0.42649,2.500447 1.03054,4.967089 2.02123,7.311533 0.20646,0.472709 0.39522,0.953553 0.61938,1.418129 0.76646,1.588479 1.91239,2.98024 2.49892,4.658733 0.0733,0.305007 0.17869,0.604044 0.21992,0.915014 0.0876,0.660622 10e-4,1.27662 -0.0799,1.93154 -0.15469,1.251101 -0.38119,2.492338 -0.65977,3.721619 -0.87969,3.648204 -1.91639,7.276333 -2.14986,11.044655 -0.46816,5.861479 -0.55238,11.770781 0.23629,17.611889 0.4052,2.634337 0.83562,5.206336 1.62798,7.756999 0.17273,0.556027 0.15787,1.243237 0.57512,1.649319 1.72882,1.682534 2.72375,2.129454 4.36428,2.918019 z" />
    <path
       style="mix-blend-mode:normal;fill:#e6e6e6;fill-opacity:1;stroke:#000000;stroke-width:0.898001;stroke-opacity:1;filter:url(#filter103)"
       id="path97"
       d="m 155.06395,93.922218 c 2.01376,-3.758851 4.51876,-7.229247 6.86757,-10.782236 0.67618,-1.076201 1.7235,-2.714453 2.35545,-3.83068 0.33434,-0.590553 0.70029,-1.169234 0.95306,-1.799029 0.2835,-0.706374 0.49285,-1.444408 0.64779,-2.189613 0.45542,-2.190421 0.28598,-2.610672 0.16824,-4.847957 -0.82453,-4.162647 -3.18002,-7.727164 -5.72402,-11.038472 -1.65424,-1.88866 -3.26531,-3.490201 -4.27643,-5.818487 -0.55592,-2.010082 0.62618,-3.649969 1.78306,-5.178605 1.2565,-1.529212 2.72687,-2.874581 4.25764,-4.124372 0.18255,-0.161457 0.3651,-0.322916 0.54765,-0.484376 0,0 -3.30244,-2.051393 -3.30244,-2.051393 v 0 c -0.17917,0.158837 -0.35833,0.317672 -0.5375,0.476509 -1.52531,1.29164 -2.95903,2.700242 -4.24114,4.234675 -1.25787,1.616654 -2.48904,3.35785 -2.01634,5.51194 0.32229,0.792956 0.35656,0.969245 0.82424,1.72068 0.97219,1.562061 2.32188,2.831545 3.49919,4.230653 2.60994,3.251206 5.04672,6.755532 5.9517,10.896188 0.13037,2.153083 0.30564,2.610011 -0.13816,4.720825 -0.60567,2.880744 -2.40031,5.26484 -3.88853,7.735488 -2.35442,3.570885 -4.77925,7.095339 -7.11432,10.678271 z" />
    <path
       style="mix-blend-mode:normal;fill:#e6e6e6;fill-opacity:1;stroke:#000000;stroke-width:0.898001;stroke-opacity:1;filter:url(#filter104)"
       id="path98"
       d="m 188.42039,93.380095 c 0.2914,-0.653 0.59836,-1.299279 0.8742,-1.959002 0.3254,-0.778253 2.89063,-7.226302 3.02932,-7.573631 1.69121,-4.235281 3.35141,-8.468434 4.90442,-12.756412 0.90498,-2.796154 2.73216,-7.173434 1.4776,-10.162977 -0.46965,-1.119147 -1.07324,-1.440098 -1.95937,-2.171046 -2.88072,-2.040686 -4.54545,-2.49904 -7.5145,-3.258148 -0.41212,-0.105368 -0.82856,-0.195641 -1.2354,-0.319826 -0.33861,-0.103359 -1.29974,-0.547994 -0.99847,-0.362053 0.81206,0.501198 1.69522,0.876813 2.54283,1.31522 -0.19405,-0.261223 -0.43409,-0.493892 -0.58215,-0.783672 -1.22421,-2.396035 -0.76329,-5.757423 -0.35546,-8.294447 0.6937,-3.773643 2.35499,-7.234705 4.26906,-10.524952 0.25015,-0.404334 0.5003,-0.808665 0.75045,-1.212999 0,0 -3.26881,-1.894855 -3.26881,-1.894855 v 0 c -0.24119,0.413416 -0.48237,0.826833 -0.72355,1.24025 -1.84628,3.368545 -3.58784,6.845578 -4.31458,10.651122 -0.41723,2.606447 -0.88759,5.96156 0.12254,8.492466 0.12887,0.322905 0.34903,0.601403 0.52355,0.902107 3.76299,2.283204 3.18283,2.301135 6.26948,3.087826 0.4604,0.117342 0.92343,0.225295 1.37988,0.357168 0.49302,0.142439 1.68588,0.929889 1.46751,0.465474 -0.31648,-0.673097 -1.22752,-0.840272 -1.84128,-1.260409 0.8669,0.616157 1.57657,0.967645 2.09496,1.961846 1.50486,2.886149 -0.19134,7.369201 -1.03415,10.151554 -0.45649,1.326878 -0.88961,2.662023 -1.36948,3.98063 -1.04797,2.879709 -2.29259,5.963573 -3.48379,8.783182 -0.99931,2.365383 -2.16655,5.05455 -3.34034,7.36985 -0.31791,0.627068 -0.68757,1.226521 -1.03136,1.83978 z" />
  </g>
  <metadata
     id="metadata104">
    <rdf:RDF>
      <cc:Work
         rdf:about="">
        <dc:title>Red soup</dc:title>
      </cc:Work>
    </rdf:RDF>
  </metadata>
</svg>
